<svg data-v-70fac1ae="" width="45" height="28" viewBox="0 0 45 28" fill="none" xmlns="http://www.w3.org/2000/svg" data-v-430e14d0=""><path d="M28.581 25.01h-12.17V2.995h12.17V25.01z" fill="#FF5F00"></path><path d="M17.193 14c0-4.466 2.077-8.443 5.313-11.007A13.794 13.794 0 0013.909 0C6.227 0 0 6.268 0 14s6.227 14 13.91 14c3.244 0 6.23-1.119 8.596-2.993A14.009 14.009 0 0117.193 14z" fill="#EB001B"></path><path d="M45 14c0 7.732-6.226 14-13.909 14-3.244 0-6.23-1.119-8.597-2.993A14.007 14.007 0 0027.808 14c0-4.466-2.078-8.443-5.314-11.007A13.799 13.799 0 0131.092 0C38.773 0 45 6.268 45 14z" fill="#F79E1B"></path></svg>