<svg data-v-70fac1ae="" width="34" height="34" viewBox="0 0 34 34" fill="none" xmlns="http://www.w3.org/2000/svg" data-v-430e14d0=""><path d="M26.715 21.38c.577.241.825 1.048.825 1.451.082.646-.083.968-.33.968-.248 0-.577-.241-.907-.806-.33-.565-.495-1.13-.33-1.452.247-.162.495-.242.742-.162zM23.335 23.879c.33 0 .742.161 1.154.484.66.565.907 1.21.577 1.694-.165.242-.577.403-.907.403-.412 0-.824-.16-1.072-.403-.66-.565-.824-1.371-.412-1.855.082-.162.33-.323.66-.323z" fill="#F28A1A"></path><path d="M15.503 30.252C6.927 30.252 0 23.476 0 15.167 0 6.857 6.927 0 15.503 0c8.575 0 15.502 6.777 15.502 15.167 0 2.823-.825 5.485-2.144 7.744-.082.08-.165.08-.165-.08-.577-3.712-2.886-5.728-6.184-6.374-.33-.08-.33-.242.082-.242 1.072-.08 2.474-.08 3.299.081.082-.403.082-.807.082-1.13 0-5.485-4.618-10.003-10.225-10.003-5.607 0-10.225 4.518-10.225 10.004 0 5.485 4.618 10.003 10.225 10.003h.495c-.165-.887-.248-1.775-.165-2.743 0-.645.165-.726.412-.242 1.402 2.42 3.463 4.518 7.421 5.405 3.216.726 6.432 1.533 9.978 5.809.33.403-.165.806-.494.484-3.546-3.066-6.762-4.115-9.73-4.115-3.712.081-5.938.484-8.164.484z" fill="#F28A1A"></path></svg>