<svg data-v-70fac1ae="" width="52" height="16" viewBox="0 0 52 16" fill="none" xmlns="http://www.w3.org/2000/svg" data-v-430e14d0=""><path fill-rule="evenodd" clip-rule="evenodd" d="M26.892 5.115c-.03 2.229 2.084 3.473 3.677 4.212 1.636.759 2.186 1.245 2.18 1.924-.013 1.038-1.306 1.497-2.516 1.514-2.054.03-3.271-.512-4.235-.942l-.08-.035-.76 3.39c.98.43 2.792.806 4.672.822 4.413 0 7.3-2.075 7.316-5.294.01-2.443-2.114-3.505-3.813-4.356-1.142-.57-2.092-1.046-2.076-1.78.014-.553.569-1.143 1.784-1.294.6-.076 2.26-.134 4.142.692l.739-3.28C36.91.336 35.609 0 33.99 0c-4.154 0-7.075 2.104-7.099 5.115zM45.019.282c-.805 0-1.485.447-1.788 1.135l-6.303 14.34h4.41l.877-2.31h5.389l.509 2.31h3.886L48.608.283h-3.589zm1.894 9.984L45.64 4.454l-2.212 5.812h3.485zM21.552.282l-3.476 15.476h4.202L25.752.282h-4.2zM10.957 10.815L15.331.282h4.413l-6.809 15.476h-4.44L5.144 3.408c-.203-.76-.38-1.04-.998-1.36C3.136 1.524 1.468 1.034 0 .73l.1-.45h7.15c.91 0 1.73.578 1.938 1.578l1.769 8.956z" fill="#3362AB"></path></svg>