<?xml version="1.0" encoding="UTF-8"?>
<!DOCTYPE svg PUBLIC "-//W3C//DTD SVG 1.1//EN" "http://www.w3.org/Graphics/SVG/1.1/DTD/svg11.dtd">
<!-- Creator: CorelDRAW X8 -->
<svg xmlns="http://www.w3.org/2000/svg" xml:space="preserve" width="513.057mm" height="126.585mm" version="1.1" style="shape-rendering:geometricPrecision; text-rendering:geometricPrecision; image-rendering:optimizeQuality; fill-rule:evenodd; clip-rule:evenodd"
viewBox="0 0 51306 12659"
 xmlns:xlink="http://www.w3.org/1999/xlink">
 <defs>
  <style type="text/css">
   <![CDATA[
    .fil0 {fill:#7C75D9}
    .fil2 {fill:#7C75D9;fill-rule:nonzero}
    .fil1 {fill:#CFCDE9;fill-rule:nonzero}
   ]]>
  </style>
 </defs>
 <g id="Слой_x0020_1">
  <metadata id="CorelCorpID_0Corel-Layer"/>
  <g id="_2775111790432">
   <path class="fil0" d="M4772 10137c0,-88 -24,-371 222,-371 423,0 119,538 562,996 503,521 1021,140 1021,586 0,510 -1227,203 -1641,-609 -78,-153 -164,-384 -164,-602zm7046 -10137l109 0c75,3 112,21 174,112 219,324 558,990 558,1371l0 496c-10,115 -35,229 -96,398 -49,136 -131,176 -69,332 95,239 165,453 165,777l0 24c0,490 -4,678 -301,1134 -295,452 -441,292 -441,672 0,335 -124,667 -255,882 -234,385 -545,512 -593,594l-59 163c-107,280 -381,610 -609,801 -270,226 -676,511 -989,667 -192,96 -567,309 -759,354 164,309 322,693 322,1162 0,1598 -1155,2617 -2432,2720l-426 0c-330,-27 -661,-116 -974,-272 -537,-268 -972,-720 -1229,-1269 -352,-757 -292,-1616 91,-2341 -189,-44 -585,-266 -775,-362 -543,-276 -1407,-898 -1595,-1496 -8,-26 -26,-87 -37,-111 -68,-137 -331,-164 -620,-641 -370,-609 -122,-926 -302,-1107 -318,-317 -676,-718 -676,-1253l0 -334c3,-282 27,-379 172,-782 49,-136 -37,-201 -83,-332 -56,-162 -80,-269 -89,-376l0 -500c0,-278 164,-649 264,-848 77,-154 267,-635 478,-635 641,0 33,524 543,1509 347,669 1432,1012 2028,1408 476,316 915,763 915,1484 0,1396 -519,1037 -519,2546 0,822 489,1144 618,1335 120,-80 224,-253 608,-504 67,-44 146,-96 216,-130 566,-283 1208,-349 1831,-192l526 192c232,116 664,432 799,634 326,-218 643,-782 643,-1335 0,-1408 -519,-1342 -519,-2348 0,-862 294,-1284 944,-1702 720,-462 825,-338 1691,-1003 269,-207 526,-750 530,-1151 4,-296 -80,-743 222,-743z"/>
   <path class="fil1" d="M22381 2886c-155,163 -282,301 -379,415 -98,115 -172,204 -221,269 -203,269 -346,518 -427,746l-771 0 25 -61c138,-310 269,-534 391,-672l-1492 0c-16,138 -57,281 -122,428l-2922 6810 -1944 0 3007 -6810c9,-17 13,-45 13,-86 0,-82 -45,-159 -135,-232 -90,-74 -179,-110 -269,-110l-2115 0c-196,0 -294,-114 -294,-343 0,-236 110,-354 331,-354l7324 0zm1430 6113c-204,449 -656,868 -1357,1260 -668,375 -1288,562 -1859,562 -513,0 -770,-232 -770,-697 0,-155 37,-318 110,-489l856 -1907c8,-8 12,-29 12,-61 0,-58 -32,-108 -98,-153 -65,-45 -130,-68 -195,-68 -106,0 -200,102 -281,306 -392,872 -1036,1549 -1932,2030 -277,155 -506,236 -685,244l1810 -4047 2616 1480c188,114 281,289 281,525 0,66 -12,115 -36,147l-538 1223c-33,65 -49,130 -49,196 0,106 61,158 183,158 237,0 534,-130 893,-391 367,-261 603,-513 709,-758l330 440zm1822 -1773c8,-24 12,-49 12,-73 0,-98 -69,-147 -208,-147 -179,0 -297,78 -354,233l-453 990 551 0 452 -1003zm2201 1773c-212,465 -677,893 -1394,1284 -677,359 -1251,538 -1724,538l-929 0c-881,0 -1321,-289 -1321,-868 0,-310 114,-709 343,-1198l391 -881c195,-432 460,-798 795,-1100 375,-326 778,-489 1210,-489l1211 0c521,0 782,200 782,599 0,228 -143,672 -428,1333 -212,464 -615,697 -1210,697l-1223 0 -293 648c-58,122 -86,236 -86,342 0,122 49,184 147,184l354 0c791,0 1537,-233 2238,-697 407,-278 680,-555 819,-832l318 428 0 12zm1846 -1773c17,-49 25,-73 25,-73 0,-98 -70,-147 -208,-147 -188,0 -310,78 -367,233l-1039 2323c-57,122 -86,240 -86,354 0,114 49,172 147,172 171,0 326,-155 465,-465l1063 -2397zm2813 1761c-204,465 -661,889 -1370,1272 -668,375 -1288,562 -1858,562 -269,0 -420,-122 -453,-367 -285,253 -615,379 -990,379 -864,0 -1296,-289 -1296,-868 0,-301 110,-705 330,-1210l171 -379c253,-563 583,-1036 990,-1419 481,-448 995,-672 1541,-672 399,0 705,134 917,403l110 -244 1125 0 -538 1210c-82,188 -185,422 -312,703 -126,282 -271,610 -434,985 -32,65 -49,130 -49,195 0,106 61,159 184,159 236,0 534,-130 892,-391 359,-261 595,-509 709,-746l331 428zm1455 147c97,-220 146,-453 146,-697 0,-237 -49,-424 -146,-563 -115,131 -255,290 -422,477 -167,188 -365,412 -593,673 -33,122 -49,248 -49,379 0,236 65,354 195,354 392,0 681,-207 869,-623zm953 -3412c0,-32 -28,-48 -85,-48 -106,0 -180,44 -220,134 -25,65 -37,126 -37,183 0,57 4,106 12,147 220,-228 330,-367 330,-416zm2421 3302c-187,301 -424,566 -709,795 -285,228 -615,423 -990,586 -636,278 -1288,416 -1957,416 -1076,0 -1614,-383 -1614,-1149l0 -37c-277,318 -847,652 -1711,1003l36 -612c1467,-937 2568,-1915 3302,-2934 -25,-82 -37,-171 -37,-269 0,-269 65,-546 196,-832 277,-635 664,-953 1161,-953 416,0 624,130 624,391 0,122 -29,245 -86,367 -114,236 -338,566 -672,990 587,726 880,1288 880,1688 0,521 -363,1039 -1088,1552 391,0 827,-150 1308,-452 465,-285 815,-644 1052,-1076l305 526zm4561 -25c-204,449 -656,868 -1357,1260 -669,375 -1288,562 -1859,562 -269,0 -420,-122 -452,-367 -302,253 -632,379 -991,379 -872,0 -1308,-289 -1308,-868 0,-318 114,-721 343,-1210l1027 -2311 1601 0 -1394 3118c-57,122 -85,240 -85,354 0,114 49,172 147,172 163,0 313,-155 452,-465l1590 -3583 1357 746 -1125 2556c-33,65 -49,130 -49,195 0,106 61,159 183,159 237,0 534,-130 893,-391 350,-253 583,-501 697,-746l330 428 0 12zm4622 0c-204,449 -656,868 -1357,1260 -669,375 -1288,562 -1859,562 -513,0 -770,-232 -770,-697 0,-155 37,-318 110,-489l856 -1907c8,-8 12,-29 12,-61 0,-58 -33,-108 -98,-153 -65,-45 -130,-68 -195,-68 -106,0 -200,102 -282,306 -391,872 -1035,1549 -1932,2030 -277,155 -505,236 -684,244l1809 -4047 2617 1480c187,114 281,289 281,525 0,66 -12,115 -36,147l-538 1223c-33,65 -49,130 -49,196 0,106 61,158 183,158 236,0 534,-130 893,-391 366,-261 603,-513 709,-758l330 440zm1822 -1773c8,-24 12,-49 12,-73 0,-98 -69,-147 -208,-147 -179,0 -297,78 -354,233l-453 990 550 0 453 -1003zm2201 1773c-212,465 -677,893 -1394,1284 -677,359 -1251,538 -1724,538l-930 0c-880,0 -1320,-289 -1320,-868 0,-310 114,-709 342,-1198l392 -881c195,-432 460,-798 794,-1100 375,-326 779,-489 1211,-489l1210 0c522,0 783,200 783,599 0,228 -143,672 -428,1333 -212,464 -616,697 -1211,697l-1222 0 -294 648c-57,122 -85,236 -85,342 0,122 49,184 146,184l355 0c791,0 1537,-233 2238,-697 407,-278 680,-555 819,-832l318 428 0 12z"/>
   <path class="fil2" d="M35123 3634c-48,-10 -72,-55 -72,-134 0,-26 4,-47 12,-63 -39,21 -70,55 -91,103l-351 790c-11,21 -16,43 -16,67 0,40 18,59 55,59 63,0 115,-42 154,-126l309 -696zm339 -158c16,-34 24,-70 24,-106 0,-50 -17,-76 -51,-76 -56,0 -83,27 -83,80 0,26 9,50 27,73 19,22 40,33 64,33 10,0 17,-1 19,-4zm712 52c-129,131 -327,212 -593,241 -11,23 -24,53 -40,89 -15,35 -34,78 -55,128 -200,453 -432,680 -695,680l-447 0c-155,0 -233,-73 -233,-218 0,-89 32,-208 95,-355l158 -348c63,-145 151,-267 265,-368 129,-118 262,-177 399,-177l162 0c81,-74 184,-111 308,-111 158,0 237,66 237,198 0,65 -24,139 -71,221 40,10 76,16 111,16 66,0 159,-37 280,-111l119 115zm1343 549c-63,145 -209,281 -438,407 -216,121 -416,182 -601,182 -32,0 -71,-11 -118,-32 -87,-39 -131,-104 -131,-193 0,-53 13,-107 40,-162l347 -775c6,-21 8,-34 8,-40 0,-29 -18,-43 -55,-43 -58,0 -100,29 -126,87l-514 1158 -577 0 687 -1545 364 193c105,-110 254,-166 447,-166 184,0 276,96 276,289 0,97 -24,199 -71,304l-201 447c-11,23 -16,44 -16,63 0,34 19,51 59,51 76,0 173,-42 288,-126 116,-85 193,-165 230,-241l106 138 -4 4zm1131 -1648c0,-8 1,-13 4,-16 0,-26 -20,-39 -60,-39 -42,0 -72,21 -91,63 -44,100 -100,224 -166,371 -65,148 -143,322 -233,522 106,-26 203,-140 293,-340l253 -561zm-91 1648c-77,166 -219,308 -427,427 -195,108 -378,162 -549,162 -127,0 -231,-33 -313,-99 -92,-71 -138,-166 -138,-285 0,-39 8,-77 24,-114l735 -1648c66,-142 162,-250 288,-324 122,-69 252,-103 392,-103 92,0 181,19 268,55 98,43 147,103 147,182 0,24 -7,52 -20,83l-257 577c-155,345 -414,586 -775,723l-205 463c-13,31 -20,55 -20,71 0,58 41,87 123,87 105,0 224,-40 355,-119 135,-87 223,-180 265,-280l107 142zm956 0c-63,145 -209,281 -438,407 -217,121 -417,182 -601,182 -69,0 -125,-26 -170,-77 -45,-52 -67,-112 -67,-180 0,-47 9,-91 27,-130l518 -1158 435 241 -368 826c-10,23 -16,44 -16,63 0,34 20,51 60,51 76,0 172,-42 288,-126 116,-85 193,-165 229,-241l107 138 -4 4zm44 -1379c-32,68 -94,125 -186,170 -71,34 -148,51 -229,51 -61,0 -115,-13 -162,-39 -48,-27 -71,-64 -71,-111 0,-24 5,-48 15,-71 32,-66 94,-121 186,-166 79,-37 156,-56 229,-56 61,0 115,14 162,40 48,26 71,65 71,115 0,23 -5,46 -15,67zm1525 1379c-63,145 -209,281 -439,407 -216,121 -416,182 -600,182 -32,0 -71,-11 -119,-32 -87,-39 -130,-104 -130,-193 0,-53 13,-107 39,-162l348 -775c5,-21 8,-34 8,-40 0,-29 -18,-43 -55,-43 -58,0 -100,29 -127,87l-514 1158 -577 0 688 -1545 364 193c105,-110 254,-166 446,-166 185,0 277,96 277,289 0,97 -24,199 -71,304l-202 447c-10,23 -16,44 -16,63 0,34 20,51 60,51 76,0 172,-42 288,-126 116,-85 192,-165 229,-241l107 138 -4 4zm581 -573c3,-8 4,-16 4,-24 0,-31 -22,-47 -67,-47 -58,0 -96,25 -115,75l-146 320 178 0 146 -324zm711 573c-68,150 -218,288 -450,415 -219,116 -405,174 -557,174l-301 0c-284,0 -427,-94 -427,-281 0,-100 37,-229 111,-387l127 -285c63,-139 148,-258 256,-355 122,-106 252,-158 392,-158l391 0c169,0 253,64 253,193 0,74 -46,218 -138,431 -69,150 -199,225 -392,225l-395 0 -95 210c-18,39 -27,76 -27,110 0,40 15,60 47,60l115 0c255,0 496,-75 723,-226 132,-89 220,-179 265,-268l102 138 0 4zm676 889c19,-45 42,-100 71,-166 29,-66 65,-142 107,-229 -45,32 -85,62 -121,91 -35,29 -63,58 -85,87 -15,21 -33,49 -53,85 -20,35 -40,79 -61,132 -3,3 -4,8 -4,16 0,29 20,43 59,43 37,0 66,-19 87,-59zm676 -1462c3,-8 4,-16 4,-24 0,-31 -23,-47 -67,-47 -58,0 -96,25 -115,75l-265 593c-18,37 -27,71 -27,102 0,35 14,52 43,52 58,0 113,-56 166,-166l261 -585zm905 569c-53,116 -158,228 -316,336 -158,111 -294,166 -407,166 -42,0 -77,-8 -103,-24l-142 324c-61,143 -168,256 -320,340 -132,74 -274,111 -427,111 -111,0 -204,-23 -279,-69 -75,-46 -112,-113 -112,-200 0,-45 11,-95 35,-150 82,-185 241,-307 478,-368 -171,-31 -257,-137 -257,-316 0,-105 29,-221 87,-348 82,-181 189,-334 320,-458 153,-145 318,-217 494,-217 130,0 230,43 301,130l35 -79 364 0 -391 873c-27,53 -40,95 -40,127 0,34 20,51 59,51 77,0 173,-42 289,-126 113,-82 188,-162 225,-241l107 138zm609 -569c5,-16 7,-24 7,-24 0,-31 -22,-47 -67,-47 -60,0 -100,25 -118,75l-336 751c-19,39 -28,77 -28,114 0,37 16,56 48,56 55,0 105,-50 150,-150l344 -775zm908 569c-65,150 -213,287 -442,411 -216,121 -416,182 -601,182 -87,0 -136,-40 -146,-119 -92,82 -199,123 -320,123 -279,0 -419,-94 -419,-281 0,-97 35,-228 107,-391l55 -123c82,-181 188,-334 320,-458 155,-145 321,-217 498,-217 129,0 228,43 296,130l36 -79 364 0 -174 391c-27,61 -60,137 -101,227 -41,91 -88,197 -140,319 -11,21 -16,42 -16,63 0,34 20,51 59,51 76,0 173,-42 289,-126 115,-85 192,-165 229,-241l106 138zm2320 4c-66,145 -213,281 -442,407 -216,121 -415,182 -597,182 -40,0 -78,-9 -115,-28 -89,-39 -134,-105 -134,-197 0,-48 12,-102 35,-162l348 -775c6,-21 8,-34 8,-40 0,-29 -17,-43 -51,-43 -61,0 -104,29 -131,87l-513 1158 -573 0 517 -1162c6,-21 8,-34 8,-40 0,-29 -18,-43 -55,-43 -58,0 -100,29 -127,87l-513 1158 -577 0 687 -1545 364 193c105,-110 254,-166 446,-166 137,0 226,61 265,182 129,-121 289,-182 478,-182 185,0 277,96 277,289 0,97 -24,199 -71,304l-198 447c-13,31 -19,52 -19,63 0,34 21,51 63,51 76,0 172,-42 288,-126 114,-82 189,-162 226,-241l106 138 0 4zm605 -573c2,-8 4,-16 4,-24 0,-31 -23,-47 -67,-47 -58,0 -97,25 -115,75l-146 320 178 0 146 -324zm711 573c-68,150 -218,288 -450,415 -219,116 -405,174 -558,174l-300 0c-284,0 -427,-94 -427,-281 0,-100 37,-229 111,-387l126 -285c64,-139 149,-258 257,-355 121,-106 252,-158 392,-158l391 0c168,0 253,64 253,193 0,74 -46,218 -139,431 -68,150 -199,225 -391,225l-395 0 -95 210c-18,39 -28,76 -28,110 0,40 16,60 48,60l114 0c256,0 497,-75 724,-226 131,-89 220,-179 264,-268l103 138 0 4zm431 43c32,-71 47,-146 47,-225 0,-76 -15,-137 -47,-182 -37,43 -82,94 -136,155 -54,60 -118,133 -192,217 -11,39 -16,80 -16,122 0,77 21,115 63,115 127,0 220,-67 281,-202zm308 -1102c0,-11 -9,-16 -27,-16 -35,0 -58,15 -72,44 -7,21 -11,40 -11,59 0,18 1,34 4,47 71,-74 106,-118 106,-134zm783 1067c-61,97 -137,183 -230,257 -92,74 -198,137 -320,189 -205,90 -416,135 -632,135 -348,0 -522,-124 -522,-372l0 -12c-89,103 -274,211 -553,325l12 -198c474,-303 830,-619 1067,-949 -8,-26 -12,-55 -12,-86 0,-87 21,-177 63,-269 90,-206 215,-308 376,-308 134,0 201,42 201,126 0,40 -9,79 -27,119 -37,76 -110,183 -218,320 190,234 285,416 285,545 0,169 -117,336 -352,502 127,0 268,-49 423,-146 150,-93 263,-208 340,-348l99 170z"/>
  </g>
 </g>
</svg>
