<svg width="95" height="95" viewBox="0 0 95 95" fill="none" xmlns="http://www.w3.org/2000/svg">
<g clip-path="url(#clip0_211_2)">
<path fill-rule="evenodd" clip-rule="evenodd" d="M35.8117 76.0735C35.8117 75.4131 35.6316 73.2894 37.4777 73.2894C40.6521 73.2894 38.3707 77.3268 41.6952 80.7639C45.47 84.6738 49.3574 81.8145 49.3574 85.1615C49.3574 88.9889 40.1493 86.685 37.0424 80.5913C36.4571 79.4431 35.8117 77.7095 35.8117 76.0735ZM88.6887 0H89.5067C90.0695 0.0225136 90.3472 0.157595 90.8125 0.840509C92.456 3.27198 95 8.27001 95 11.1292V14.8515C94.925 15.7145 94.7373 16.57 94.2796 17.8383C93.9118 18.8589 93.2965 19.1591 93.7618 20.3298C94.4747 22.1234 95 23.7294 95 26.1608V26.3409C95 30.0182 94.97 31.429 92.7411 34.8511C90.5273 38.2431 89.4316 37.0424 89.4316 39.8941C89.4316 42.4082 88.5011 44.8997 87.518 46.5132C85.7619 49.4024 83.428 50.3555 83.0678 50.9709L82.625 52.1941C81.822 54.2954 79.7658 56.7719 78.0547 58.2052C76.0285 59.9013 72.9817 62.0401 70.6328 63.2108C69.1919 63.9312 66.3777 65.5297 64.9368 65.8674C66.1675 68.1863 67.3533 71.068 67.3533 74.5876C67.3533 86.5799 58.6855 94.227 49.1022 95H45.9053C43.4288 94.7974 40.9448 94.1295 38.5959 92.9588C34.5659 90.9475 31.3014 87.5555 29.3728 83.4355C26.7312 77.7546 27.1815 71.3082 30.0557 65.8674C28.6373 65.5372 25.6655 63.8712 24.2397 63.1507C20.1647 61.0795 13.6808 56.4116 12.2699 51.9239C12.2099 51.7288 12.0748 51.271 11.9923 51.0909C11.4819 50.0628 9.50826 49.8602 7.33944 46.2805C4.56276 41.7102 6.42389 39.3313 5.07307 37.973C2.68663 35.594 0 32.5847 0 28.5698V26.0633C0.0225136 23.947 0.202623 23.2191 1.29078 20.1947C1.6585 19.1741 1.01311 18.6863 0.667904 17.7032C0.24765 16.4875 0.0675409 15.6845 0 14.8815V11.1292C0 9.04297 1.23074 6.25879 1.9812 4.76538C2.55905 3.60968 3.98491 0 5.56837 0C10.3788 0 5.81602 3.93238 9.64334 11.3244C12.2474 16.3449 20.3898 18.919 24.8625 21.8908C28.4347 24.2622 31.7292 27.6167 31.7292 33.0275C31.7292 43.5038 27.8343 40.8097 27.8343 52.1341C27.8343 58.3028 31.5041 60.7193 32.4722 62.1526C33.3727 61.5523 34.1532 60.254 37.0349 58.3703C37.5377 58.0401 38.1306 57.6499 38.6559 57.3947C42.9035 55.271 47.7214 54.7757 52.3967 55.9539L56.3441 57.3947C58.0852 58.2653 61.3271 60.6367 62.3402 62.1526C64.7867 60.5166 67.1657 56.2841 67.1657 52.1341C67.1657 41.5677 63.2708 42.063 63.2708 34.5134C63.2708 28.0445 65.4771 24.8776 70.3551 21.7407C75.7584 18.2736 76.5463 19.2041 83.0453 14.2136C85.064 12.6602 86.9927 8.5852 87.0227 5.57587C87.0527 3.35453 86.4223 0 88.6887 0Z" fill="url(#paint0_linear_211_2)"/>
</g>
<defs>
<linearGradient id="paint0_linear_211_2" x1="96" y1="-6.02823e-06" x2="14" y2="69.5" gradientUnits="userSpaceOnUse">
<stop offset="0.448139" stop-color="#B5BBD3"/>
<stop offset="1" stop-color="white"/>
</linearGradient>
<clipPath id="clip0_211_2">
<rect width="95" height="95" fill="white"/>
</clipPath>
</defs>
</svg>
