<svg aria-hidden="true" style="position: absolute; width: 0; height: 0; overflow: hidden;" version="1.1" xmlns="http://www.w3.org/2000/svg" xmlns:xlink="http://www.w3.org/1999/xlink">
    <defs>
        <symbol id="dice" viewBox="0 0 375 375" xmlns="http://www.w3.org/2000/svg">
            <path fill-rule="evenodd" clip-rule="evenodd" d="M176.751 1.16775C171.16 2.98078 32.8731 83.4606 30.0683 86.5344C26.675 90.2516 26.712 94.5292 30.1657 97.9504C32.7559 100.516 167.577 179.001 175.176 182.368C180.233 184.607 192.028 184.829 197.604 182.788C202.955 180.829 340.297 101.218 343.24 98.3691C346.551 95.1636 347.181 91.33 344.978 87.7924C343.632 85.6301 327.511 75.8863 272.616 44.055C233.77 21.5298 199.959 2.38877 197.48 1.51881C192.149 -0.351975 181.97 -0.524344 176.751 1.16775ZM197.318 49.0573C206.694 51.5029 213.653 55.9927 216.487 61.4254C218.127 64.5696 218.1 69.4798 216.407 75.9901C214.155 84.6446 214.537 87.759 218.218 90.7984L221.382 93.4092L206.727 101.627L192.072 109.845L188.502 107.881C183.929 105.364 180.806 100.746 180.806 96.4965C180.806 94.6889 181.445 90.7894 182.225 87.8312C184.493 79.2335 184.256 74.8801 181.388 72.4092C175.651 67.4682 166.685 67.6975 155.738 73.0644C149.109 76.3141 139.817 84.6699 135.718 91.0647C134.141 93.5248 132.589 95.5291 132.269 95.5183C131.949 95.5074 127.127 92.9291 121.554 89.7895L111.422 84.0797L117.048 78.6993C131.435 64.9423 153.262 53.0877 171.348 49.208C179.603 47.4365 190.854 47.3715 197.318 49.0573ZM244.056 105.588C250.476 109.13 255.398 112.334 254.994 112.708C254.59 113.083 247.978 116.917 240.298 121.231L226.335 129.072L220.019 125.665C216.546 123.79 211.118 120.759 207.958 118.928L202.214 115.599L206.156 113.307C219.252 105.689 230.934 99.2039 231.606 99.1786C232.034 99.1615 237.637 102.046 244.056 105.588ZM19.1557 118.34C17.912 119.586 16.6466 121.97 16.3446 123.639C16.0427 125.307 15.9147 160.388 16.0598 201.596L16.3239 276.52L19.2891 282.549C21.1556 286.345 23.827 289.965 26.4993 292.321C31.2247 296.485 163.279 373.218 168.061 374.576C170.174 375.178 171.886 375.105 173.736 374.338C179.281 372.039 179.067 375.545 178.798 291.152L178.553 214.211L176.006 209.018C171.091 198.994 170.108 198.336 97.0429 156.173C23.3899 113.67 23.6792 113.811 19.1557 118.34ZM343.902 117.918C342.187 118.811 310.976 136.781 274.544 157.852C233.51 181.584 207.028 197.439 204.947 199.52C203.1 201.366 200.259 205.427 198.633 208.544L195.678 214.211L195.405 290.017C195.216 342.818 195.432 366.848 196.116 369.201C197.332 373.383 201.188 375.705 205.432 374.809C207.007 374.476 213.771 371.051 220.463 367.196C320.101 309.806 344.832 295.243 348.267 291.941C350.4 289.89 353.442 285.581 355.026 282.366L357.907 276.52L358.152 200.252C358.333 143.953 358.124 123.323 357.352 121.457C355.217 116.295 349.774 114.862 343.902 117.918ZM68.9908 175.951C88.6205 181.421 109.182 195.64 118.633 210.28C123.64 218.038 125.94 224.758 126.491 233.242C127.333 246.19 124.434 250.804 111.755 256.697C107.214 258.808 103.158 261.077 102.744 261.739C102.331 262.402 101.778 264.602 101.518 266.63L101.044 270.315L88.4259 262.909L75.808 255.502L75.5575 250.649C75.105 241.871 77.2555 239.649 93.3847 232.232C98.713 229.781 100.992 225.888 100.199 220.594C98.3768 208.427 83.1723 198.38 66.1202 198.075L60.0366 197.966V186.009C60.0357 177.387 60.334 174.051 61.1046 174.051C61.6932 174.051 65.2415 174.906 68.9908 175.951ZM310.108 183.423C313.507 185.653 315.342 190.061 315.798 197.082C316.533 208.424 312.842 218.165 300.419 237.674C293.072 249.212 291.633 252.319 290.87 258.304L290.311 262.688L278.144 269.797C271.452 273.708 265.618 276.912 265.18 276.918C264.741 276.926 264.584 274.111 264.83 270.664C265.374 263.057 268.587 255.865 278.119 240.916C286.568 227.664 289.271 221.711 289.349 216.181C289.396 212.851 288.994 211.506 287.661 210.53C282.778 206.951 275.274 211.167 260.795 225.62L249.303 237.091V225.337V213.584L253.584 209.732C270.387 194.611 285.397 185.052 296.793 182.215C301.383 181.072 307.349 181.613 310.108 183.423ZM93.1576 277.155L101.493 281.895L101.494 295.71C101.494 303.309 101.19 309.367 100.818 309.172C100.447 308.978 94.5662 305.616 87.7499 301.701L75.3574 294.583V280.719V266.855L80.0891 269.635C82.692 271.164 88.5719 274.548 93.1576 277.155ZM290.762 288.028V301.832L280.623 307.608C275.046 310.785 269.166 314.156 267.554 315.101L264.625 316.818L264.63 302.966L264.636 289.114L277.474 281.686C284.534 277.601 290.413 274.25 290.537 274.241C290.66 274.232 290.762 280.435 290.762 288.028Z" fill="currentColor"/>
        </symbol>
        <symbol id="mines" viewBox="0 0 375 375" xmlns="http://www.w3.org/2000/svg">
            <g clip-path="url(#clip0_218_12)">
                <path fill-rule="evenodd" clip-rule="evenodd" d="M170.745 26.1431V52.2862L161.769 54.0152C144.362 57.367 126.949 64.5527 112.131 74.4997L104.182 79.8351L85.6005 61.2654L67.0181 42.6957L54.8569 54.8569L42.6957 67.0181L61.338 85.6731L79.9803 104.328L76.8447 108.614C65.9513 123.501 57.6726 142.777 54.0152 161.769L52.2862 170.745H26.1431H0V187.5V204.255H26.1431H52.2862L54.0152 213.231C57.367 230.638 64.5527 248.051 74.4997 262.869L79.8351 270.818L61.2654 289.399L42.6957 307.982L54.8569 320.143L67.0181 332.304L85.6005 313.735L104.182 295.165L112.131 300.504C126.748 310.323 144.378 317.592 161.769 320.97L170.745 322.714V348.857V375H187.5H204.255V348.857V322.714L213.231 320.98C218.169 320.027 225.618 318.131 229.787 316.767C242.232 312.693 259.131 304.02 267.557 297.381L270.619 294.967L289.301 313.636L307.982 332.304L320.143 320.143L332.304 307.982L313.735 289.399L295.165 270.818L300.5 262.869C310.416 248.096 317.564 230.762 320.97 213.231L322.714 204.255H348.857H375V187.5V170.745H348.857H322.714L320.97 161.769C317.564 144.238 310.416 126.904 300.5 112.131L295.165 104.182L313.735 85.6005L332.304 67.0181L320.143 54.8569L307.982 42.6957L289.301 61.3644L270.619 80.033L267.557 77.6194C259.131 70.9795 242.232 62.3067 229.787 58.2335C225.618 56.8692 218.169 54.9734 213.231 54.0199L204.255 52.2862V26.1431V0H187.5H170.745V26.1431ZM187.5 102.408V119.444L180.918 119.91C149.656 122.122 122.122 149.656 119.91 180.918L119.444 187.5H102.294H85.1434L85.6915 180.235C89.5931 128.557 132.273 87.1404 183.311 85.5064L187.5 85.3723V102.408Z" fill="currentColor"/>
            </g>
            <defs>
                <clipPath id="clip0_218_12">
                    <rect width="375" height="375" fill="currentColor"/>
                </clipPath>
            </defs>
        </symbol>
        <symbol id="wheel" viewBox="0 0 375 375" xmlns="http://www.w3.org/2000/svg">
            <path fill-rule="evenodd" clip-rule="evenodd" d="M182.746 0.186119C170.383 1.28603 159.134 7.20404 152.565 16.0643C150.567 18.7582 149.59 20.5259 147.669 24.9161C146.808 26.8822 145.829 28.8534 145.491 29.2965C144.65 30.4025 142.389 31.2964 134.851 33.5029C124.526 36.5253 109.011 43.2798 99.0683 49.0815C86.0131 56.6988 70.4594 69.0438 60.5726 79.6354C38.752 103.012 23.1681 131.749 16.3777 161.132C9.37389 191.439 10.8044 223.833 20.4509 253.367C33.825 294.314 61.3491 328.576 98.7348 350.814C103.715 353.776 113.958 358.957 119.291 361.21C153.868 375.82 191.881 378.905 228.367 370.063C256.043 363.355 282.009 349.564 303.878 329.957C309.809 324.64 317.231 316.874 322.337 310.643C354.49 271.409 368.137 221.427 359.981 172.77C355.318 144.956 343.512 117.907 325.314 93.3522C322.86 90.0399 320.915 87.94 310.646 77.5122C298.318 64.994 295.57 62.5138 288.63 57.6434C274.847 47.9705 256.834 39.3276 236.351 32.5595C230.152 30.5112 229.767 30.3469 228.866 29.36C228.314 28.7563 227.563 27.4421 227.076 26.2271C224.453 19.681 222.125 16.1601 217.476 11.7018C208.743 3.32977 195.769 -0.972728 182.746 0.186119ZM194.708 18.9993C198.752 19.732 200.989 20.5287 203.509 22.1332C209.79 26.1336 213.077 33.905 213.469 45.6872C213.775 54.8729 212.16 64.4297 208.319 76.1616C205.217 85.6331 201.85 93.4931 195.747 105.5C193.491 109.939 190.835 115.211 189.845 117.215L188.045 120.858L186.955 120.867C186.069 120.874 185.866 120.789 185.866 120.409C185.866 119.793 184.064 116.117 181.887 112.291C180.924 110.599 179.048 106.967 177.717 104.218C168.888 85.9865 164.665 74.6935 162.284 62.9556C159.939 51.3886 160.283 39.0398 163.149 31.945C165.989 24.912 172.446 19.7256 179.844 18.5337C181.61 18.2492 192.44 18.5885 194.708 18.9993ZM143.415 53.3037C143.866 63.7572 145.44 70.9455 150.327 84.8699C153.31 93.3709 154.058 95.9764 153.595 96.2623C153.414 96.3743 152.644 96.5391 151.885 96.6283C149.744 96.88 144.671 98.6523 140.897 100.467C126.672 107.308 109.743 121.163 100.46 133.561C89.6189 148.041 82.776 162.634 79.7907 177.639C77.7967 187.661 77.0965 194.56 77.2821 202.359C77.4351 208.792 77.8397 212.887 78.8894 218.626C82.287 237.201 90.6998 255.068 103.451 270.793C107.215 275.434 109.136 277.289 116.19 283.095C124.807 290.187 125.803 290.924 130.978 294.03C153.808 307.734 181.113 312.551 207.649 307.554C226.348 304.033 243.581 295.893 258.262 283.646C261.872 280.636 269.026 273.312 272.022 269.561C285.103 253.182 293.284 233.477 295.981 211.851C296.644 206.535 296.646 192.012 295.985 186.865C294.362 174.234 290.575 162.437 284.342 150.603C278.51 139.528 272.117 130.716 263.824 122.317C255.606 113.995 246.716 107.469 236.864 102.525C231.187 99.6769 224.556 97.1109 221.039 96.4013C219.988 96.1893 219.876 96.7049 222.944 87.6889C228.752 70.6267 230.099 64.8048 230.712 54.1176C230.85 51.7215 230.964 49.6804 230.966 49.5819C230.968 49.4835 231.345 49.5594 231.802 49.7506C232.261 49.942 233.38 50.2916 234.29 50.5273C237.672 51.4033 254.256 58.3018 258.775 60.7122C274.796 69.2585 287.704 78.6682 299.278 90.24C306.304 97.2649 311.208 103.25 316.777 111.595C331.399 133.506 340.543 157.376 343.355 180.971C343.923 185.737 344.135 199.925 343.751 207.508C342.499 232.249 338.403 248.776 328.86 267.59C321.671 281.762 314.912 292.311 306.615 302.305C303.373 306.211 293.422 316.142 289.413 319.474C265.109 339.669 234.054 353.215 205.086 356.257C197.045 357.102 181.859 356.986 170.551 355.993C149.468 354.143 133.585 349.409 115.136 339.477C82.94 322.144 64.1024 303.168 46.9591 270.8C37.8408 253.584 32.5344 236.107 30.5789 216.848C26.7781 179.423 37.207 140.245 59.2128 109.28C72.096 91.1516 88.1443 76.3241 106.551 65.5426C113.224 61.6345 122.905 56.9579 130.897 53.7827C133.729 52.6577 142.354 49.5643 143.094 49.4087C143.178 49.391 143.322 51.1439 143.415 53.3037ZM279.45 96.8044C277.883 97.1127 275.83 98.1026 274.701 99.0944C272.784 100.777 272.183 103.036 272.723 106.519C273.802 113.473 279.35 116.49 285.53 113.484C287.294 112.625 288.91 111.054 289.826 109.307C290.449 108.117 290.545 107.645 290.546 105.756C290.547 102.956 289.987 101.311 288.447 99.5987C286.235 97.1378 282.946 96.1163 279.45 96.8044ZM89.6373 97.1457C87.971 97.6741 86.6233 98.4724 85.6293 99.5195C83.9945 101.242 83.7431 101.97 83.7431 104.987C83.7431 107.393 83.8167 107.827 84.4363 109.089C86.7212 113.742 92.4537 115.972 96.6545 113.844C99.8809 112.209 101.554 108.931 101.554 104.245C101.554 101.613 101.035 100.351 99.3389 98.8578C97.7369 97.4476 95.635 96.7818 92.855 96.8036C91.649 96.8131 90.2011 96.9671 89.6373 97.1457ZM163.184 114.405C164.541 118.235 166.443 121.626 172.432 130.9C174.582 134.229 176.641 137.543 177.007 138.266C178.749 141.703 179.062 145.842 178.851 162.648C178.758 170.047 178.611 176.591 178.525 177.189L178.368 178.276L168.727 168.799C163.425 163.585 152.34 152.64 144.094 144.476L129.103 129.631L130.64 128.052C136.093 122.451 148.979 115.387 157.993 113.058C159.299 112.72 160.843 112.438 161.423 112.431L162.479 112.419L163.184 114.405ZM216.014 113.073C223.197 114.931 235.276 121.153 241.447 126.175C242.63 127.136 243.857 128.269 244.176 128.692L244.755 129.461L220.372 154.079L195.989 178.698L195.824 176.118C195.377 169.136 195.033 155.781 195.174 150.859C195.332 145.334 195.808 141.075 196.421 139.686C196.602 139.277 198.664 135.887 201.004 132.152C208.256 120.574 210.501 116.527 211.276 113.628C211.587 112.464 211.635 112.419 212.543 112.419C213.063 112.419 214.624 112.713 216.014 113.073ZM259.083 143.576C263.426 148.169 269.776 159.207 272.596 167.066C275.382 174.829 277.097 181.865 277.654 187.818C277.823 189.615 277.901 191.145 277.827 191.218C277.754 191.291 262.136 191.322 243.12 191.287L208.546 191.222L232.853 166.684C246.222 153.188 257.289 142.146 257.446 142.146C257.602 142.146 258.339 142.79 259.083 143.576ZM141.395 166.748L165.902 190.965L146.093 191.121C135.198 191.206 119.549 191.293 111.317 191.313L96.35 191.35L96.5092 188.467C97.1731 176.434 104.039 157.687 111.503 147.528C113.193 145.228 116.06 142.34 116.543 142.451C116.733 142.495 127.917 153.428 141.395 166.748ZM49.6594 191.882C48.3086 192.604 46.5744 194.284 45.761 195.659C45.1331 196.72 45.1116 196.89 45.2277 199.887C45.3238 202.369 45.465 203.273 45.9155 204.291C47.1233 207.022 48.9984 208.031 53.5229 208.385C56.5253 208.62 57.6316 208.295 59.4314 206.65C61.3224 204.922 62.3962 202.651 62.5461 200.063C62.6073 199.006 62.5297 197.668 62.3736 197.091C61.4898 193.821 58.0217 191.74 52.9909 191.462C50.9758 191.35 50.555 191.403 49.6594 191.882ZM319.215 191.63C314.081 192.488 311.079 195.792 311.529 200.091C311.934 203.971 314.469 207.493 317.431 208.29C318.748 208.645 322.385 208.219 324.363 207.479C328.998 205.745 330.62 200.76 328.152 195.834C327.175 193.885 326.335 192.917 324.909 192.099C323.505 191.294 321.979 191.168 319.215 191.63ZM155.226 219.091C149.443 224.905 138.454 235.985 130.807 243.713C117.134 257.531 116.893 257.758 116.309 257.376C114.778 256.372 111.279 251.584 108.568 246.782C101.693 234.602 97.0412 220.995 96.5166 211.531L96.3498 208.52H131.045H165.741L155.226 219.091ZM277.763 210.877C277.397 215.72 276.169 221.492 274.229 227.484C272.666 232.313 271.427 235.299 268.648 240.938C264.846 248.651 261.767 253.517 258.927 256.298L257.635 257.563L252.183 252.201C249.184 249.252 238.103 238.303 227.558 227.871L208.385 208.904L215.897 208.77C220.029 208.696 235.679 208.61 250.675 208.578L277.94 208.52L277.763 210.877ZM178.402 259.648L178.434 290.658L175.808 290.489C169.071 290.056 159.515 287.523 151.526 284.053C142.755 280.244 134.501 275.422 130.926 272.021L129.371 270.541L130.903 268.95C131.745 268.075 142.698 256.989 155.242 244.314L178.05 221.269L178.21 224.953C178.298 226.979 178.385 242.592 178.402 259.648ZM228.725 253.991L245.06 270.142L243.6 271.618C239.373 275.889 228.437 281.991 217.948 285.931C211.312 288.424 203.798 290.19 198.744 290.445L195.604 290.604V255.933V221.263L203.997 229.551C208.613 234.11 219.741 245.108 228.725 253.991ZM91.2615 285.394C87.9482 285.987 84.8835 288.376 83.9909 291.064C83.3808 292.901 83.566 296.347 84.3651 298.013C86.9811 303.468 94.3255 305.077 98.6926 301.15C100.615 299.422 101.368 297.672 101.502 294.626C101.626 291.778 101.347 290.529 100.205 288.82C98.4268 286.159 94.7847 284.764 91.2615 285.394ZM278.99 285.491C274.168 286.715 271.648 291.167 272.773 296.471C273.837 301.487 278.13 304.13 283.332 302.973C286.78 302.206 289.453 299.946 290.304 297.08C291.293 293.751 290.132 289.841 287.455 287.484C285.347 285.629 281.767 284.787 278.99 285.491ZM184.969 324.954C182.108 325.905 179.168 328.267 178.808 329.905C178.72 330.305 178.606 330.769 178.555 330.936C178.392 331.475 178.906 335.459 179.312 336.794C180.538 340.831 184.053 343.055 188.018 342.304C191.123 341.715 194.024 339.758 195.107 337.521C195.612 336.476 195.66 336.08 195.528 334C195.154 328.134 192.5 324.885 187.926 324.694C186.783 324.646 185.576 324.753 184.969 324.954Z" fill="currentColor"/>
        </symbol>
        <symbol id="slot" viewBox="0 0 18 18" xmlns="http://www.w3.org/2000/svg">
            <path d="M16.418 5.17469H14.9904L14.2794 3.31041C13.6941 1.77553 12.2021 0.75 10.5219 0.75H7.47812C5.81105 0.75 4.31054 1.76343 3.72055 3.31041L3.00955 5.17469H1.58203C0.709699 5.17469 0 5.87251 0 6.73025V15.9944C0 16.8522 0.709699 17.55 1.58203 17.55H16.418C17.2903 17.55 18 16.8522 18 15.9944V6.73025C18 5.87251 17.2903 5.17469 16.418 5.17469ZM12.4453 7.38704H15.0785C15.4586 7.38704 15.7143 7.77178 15.5612 8.11421L13.4571 12.8206C13.3396 13.0834 13.028 13.2015 12.7621 13.0866C12.4955 12.9713 12.3744 12.6654 12.4916 12.4032L14.2706 8.42407H12.4453C12.1541 8.42407 11.918 8.19192 11.918 7.90556C11.918 7.61919 12.1541 7.38704 12.4453 7.38704ZM10.7251 3.43005C10.7565 3.13187 11.0356 2.9136 11.353 2.97237C11.641 3.03138 11.8214 3.2972 11.7671 3.58215C11.7076 3.86146 11.4401 4.04328 11.1469 3.98936C10.8667 3.9318 10.6986 3.6806 10.7251 3.43005ZM8.47508 3.43005C8.50651 3.13197 8.78555 2.91357 9.10297 2.97237C9.38904 3.03096 9.57157 3.2961 9.51711 3.58215C9.4571 3.86363 9.18798 4.04287 8.89692 3.98936C8.61718 3.93194 8.44857 3.68122 8.47508 3.43005ZM7.66406 7.38704H10.2972C10.6774 7.38704 10.9331 7.77178 10.78 8.11421L8.67586 12.8206C8.55837 13.0834 8.24678 13.2015 7.98089 13.0866C7.71427 12.9713 7.59315 12.6654 7.71036 12.4032L9.48938 8.42407H7.66406C7.37283 8.42407 7.13672 8.19192 7.13672 7.90556C7.13672 7.61919 7.37283 7.38704 7.66406 7.38704ZM6.22508 3.4297C6.25764 3.12717 6.54001 2.9144 6.85297 2.97237C7.14952 3.03311 7.32364 3.31269 7.2668 3.58215C7.21586 3.84694 6.9505 4.04519 6.64696 3.98936C6.36609 3.9317 6.1991 3.68094 6.22508 3.4297ZM2.88281 7.38704H5.51598C5.89612 7.38704 6.15182 7.77178 5.99871 8.11421L3.89461 12.8206C3.77712 13.0834 3.46553 13.2015 3.19964 13.0866C2.93302 12.9713 2.8119 12.6654 2.92911 12.4032L4.70813 8.42407H2.88281C2.59158 8.42407 2.35547 8.19192 2.35547 7.90556C2.35547 7.61919 2.59158 7.38704 2.88281 7.38704ZM15.1875 15.3377H2.8125C2.52127 15.3377 2.28516 15.1055 2.28516 14.8191C2.28516 14.5328 2.52127 14.3006 2.8125 14.3006H15.1875C15.4787 14.3006 15.7148 14.5328 15.7148 14.8191C15.7148 15.1055 15.4787 15.3377 15.1875 15.3377Z"  fill="currentColor"/>
        </symbol>
        <symbol id="plus" viewBox="0 0 16 16" xmlns="http://www.w3.org/2000/svg">
            <path fill-rule="evenodd" clip-rule="evenodd" d="M8 2.5C8.13261 2.5 8.25979 2.55268 8.35355 2.64645C8.44732 2.74021 8.5 2.86739 8.5 3V7.5H13C13.1326 7.5 13.2598 7.55268 13.3536 7.64645C13.4473 7.74022 13.5 7.86739 13.5 8C13.5 8.13261 13.4473 8.25979 13.3536 8.35355C13.2598 8.44732 13.1326 8.5 13 8.5H8.5V13C8.5 13.1326 8.44732 13.2598 8.35355 13.3536C8.25979 13.4473 8.13261 13.5 8 13.5C7.86739 13.5 7.74022 13.4473 7.64645 13.3536C7.55268 13.2598 7.5 13.1326 7.5 13V8.5H3C2.86739 8.5 2.74021 8.44732 2.64645 8.35355C2.55268 8.25979 2.5 8.13261 2.5 8C2.5 7.86739 2.55268 7.74022 2.64645 7.64645C2.74021 7.55268 2.86739 7.5 3 7.5H7.5V3C7.5 2.86739 7.55268 2.74021 7.64645 2.64645C7.74022 2.55268 7.86739 2.5 8 2.5Z" fill="currentColor"/>
        </symbol>
        <symbol id="more" viewBox="0 0 22 22" xmlns="http://www.w3.org/2000/svg">
            <path d="M6.1875 11C6.1875 11.1823 6.11507 11.3572 5.98614 11.4861C5.8572 11.6151 5.68234 11.6875 5.5 11.6875C5.31766 11.6875 5.1428 11.6151 5.01386 11.4861C4.88493 11.3572 4.8125 11.1823 4.8125 11C4.8125 10.8177 4.88493 10.6428 5.01386 10.5139C5.1428 10.3849 5.31766 10.3125 5.5 10.3125C5.68234 10.3125 5.8572 10.3849 5.98614 10.5139C6.11507 10.6428 6.1875 10.8177 6.1875 11ZM11.6875 11C11.6875 11.1823 11.6151 11.3572 11.4861 11.4861C11.3572 11.6151 11.1823 11.6875 11 11.6875C10.8177 11.6875 10.6428 11.6151 10.5139 11.4861C10.3849 11.3572 10.3125 11.1823 10.3125 11C10.3125 10.8177 10.3849 10.6428 10.5139 10.5139C10.6428 10.3849 10.8177 10.3125 11 10.3125C11.1823 10.3125 11.3572 10.3849 11.4861 10.5139C11.6151 10.6428 11.6875 10.8177 11.6875 11ZM17.1875 11C17.1875 11.1823 17.1151 11.3572 16.9861 11.4861C16.8572 11.6151 16.6823 11.6875 16.5 11.6875C16.3177 11.6875 16.1428 11.6151 16.0139 11.4861C15.8849 11.3572 15.8125 11.1823 15.8125 11C15.8125 10.8177 15.8849 10.6428 16.0139 10.5139C16.1428 10.3849 16.3177 10.3125 16.5 10.3125C16.6823 10.3125 16.8572 10.3849 16.9861 10.5139C17.1151 10.6428 17.1875 10.8177 17.1875 11Z" stroke="currentColor" stroke-width="1.5" stroke-linecap="round" stroke-linejoin="round"/>
        </symbol>
        <symbol id="settings" viewBox="0 0 24 24" xmlns="http://www.w3.org/2000/svg">
            <path fill-rule="evenodd" d="M11.828 2.25c-.916 0-1.699.663-1.85 1.567l-.091.549a.798.798 0 01-.517.608 7.45 7.45 0 00-.478.198.798.798 0 01-.796-.064l-.453-.324a1.875 1.875 0 00-2.416.2l-.243.243a1.875 1.875 0 00-.2 2.416l.324.453a.798.798 0 01.064.796 7.448 7.448 0 00-.198.478.798.798 0 01-.608.517l-.55.092a1.875 1.875 0 00-1.566 1.849v.344c0 .916.663 1.699 1.567 1.85l.549.091c.281.047.508.25.608.517.06.162.127.321.198.478a.798.798 0 01-.064.796l-.324.453a1.875 1.875 0 00.2 2.416l.243.243c.648.648 1.67.733 2.416.2l.453-.324a.798.798 0 01.796-.064c.157.071.316.137.478.198.267.1.47.327.517.608l.092.55c.15.903.932 1.566 1.849 1.566h.344c.916 0 1.699-.663 1.85-1.567l.091-.549a.798.798 0 01.517-.608 7.52 7.52 0 00.478-.198.798.798 0 01.796.064l.453.324a1.875 1.875 0 002.416-.2l.243-.243c.648-.648.733-1.67.2-2.416l-.324-.453a.798.798 0 01-.064-.796c.071-.157.137-.316.198-.478.1-.267.327-.47.608-.517l.55-.091a1.875 1.875 0 001.566-1.85v-.344c0-.916-.663-1.699-1.567-1.85l-.549-.091a.798.798 0 01-.608-.517 7.507 7.507 0 00-.198-.478.798.798 0 01.064-.796l.324-.453a1.875 1.875 0 00-.2-2.416l-.243-.243a1.875 1.875 0 00-2.416-.2l-.453.324a.798.798 0 01-.796.064 7.462 7.462 0 00-.478-.198.798.798 0 01-.517-.608l-.091-.55a1.875 1.875 0 00-1.85-1.566h-.344zM12 15.75a3.75 3.75 0 100-7.5 3.75 3.75 0 000 7.5z" fill="currentColor" clip-rule="evenodd" />
        </symbol>
        <symbol id="copy" viewBox="0 0 24 24" xmlns="http://www.w3.org/2000/svg">
            <path fill="currentColor" fill-rule="evenodd" d="M17.663 3.118c.225.015.45.032.673.05C19.876 3.298 21 4.604 21 6.109v9.642a3 3 0 01-3 3V16.5c0-5.922-4.576-10.775-10.384-11.217.324-1.132 1.3-2.01 2.548-2.114.224-.019.448-.036.673-.051A3 3 0 0113.5 1.5H15a3 3 0 012.663 1.618zM12 4.5A1.5 1.5 0 0113.5 3H15a1.5 1.5 0 011.5 1.5H12z" clip-rule="evenodd" />
            <path fill="currentColor" d="M3 8.625c0-1.036.84-1.875 1.875-1.875h.375A3.75 3.75 0 019 10.5v1.875c0 1.036.84 1.875 1.875 1.875h1.875A3.75 3.75 0 0116.5 18v2.625c0 1.035-.84 1.875-1.875 1.875h-9.75A1.875 1.875 0 013 20.625v-12z" />
            <path fill="currentColor" d="M10.5 10.5a5.23 5.23 0 00-1.279-3.434 9.768 9.768 0 016.963 6.963 5.23 5.23 0 00-3.434-1.279h-1.875a.375.375 0 01-.375-.375V10.5z" />
        </symbol>
        <symbol xmlns="http://www.w3.org/2000/svg" id="search" viewBox="0 0 14 14">
            <path d="M12.175 13.225L7.975 9.025C7.6 9.325 7.16875 9.5625 6.68125 9.7375C6.19375 9.9125 5.675 10 5.125 10C3.7625 10 2.6095 9.52825 1.666 8.58475C0.722 7.64075 0.25 6.4875 0.25 5.125C0.25 3.7625 0.722 2.60925 1.666 1.66525C2.6095 0.72175 3.7625 0.25 5.125 0.25C6.4875 0.25 7.64075 0.72175 8.58475 1.66525C9.52825 2.60925 10 3.7625 10 5.125C10 5.675 9.9125 6.19375 9.7375 6.68125C9.5625 7.16875 9.325 7.6 9.025 7.975L13.2437 12.1937C13.3812 12.3312 13.45 12.5 13.45 12.7C13.45 12.9 13.375 13.075 13.225 13.225C13.0875 13.3625 12.9125 13.4313 12.7 13.4313C12.4875 13.4313 12.3125 13.3625 12.175 13.225ZM5.125 8.5C6.0625 8.5 6.8595 8.172 7.516 7.516C8.172 6.8595 8.5 6.0625 8.5 5.125C8.5 4.1875 8.172 3.3905 7.516 2.734C6.8595 2.078 6.0625 1.75 5.125 1.75C4.1875 1.75 3.3905 2.078 2.734 2.734C2.078 3.3905 1.75 4.1875 1.75 5.125C1.75 6.0625 2.078 6.8595 2.734 7.516C3.3905 8.172 4.1875 8.5 5.125 8.5Z" fill="currentColor"/>
        </symbol>
        <symbol id="logout" viewBox="0 0 24 24" xmlns="http://www.w3.org/2000/svg">
            <path fill="currentColor" fill-rule="evenodd" d="M7.5 3.75A1.5 1.5 0 006 5.25v13.5a1.5 1.5 0 001.5 1.5h6a1.5 1.5 0 001.5-1.5V15a.75.75 0 011.5 0v3.75a3 3 0 01-3 3h-6a3 3 0 01-3-3V5.25a3 3 0 013-3h6a3 3 0 013 3V9A.75.75 0 0115 9V5.25a1.5 1.5 0 00-1.5-1.5h-6zm5.03 4.72a.75.75 0 010 1.06l-1.72 1.72h10.94a.75.75 0 010 1.5H10.81l1.72 1.72a.75.75 0 11-1.06 1.06l-3-3a.75.75 0 010-1.06l3-3a.75.75 0 011.06 0z" clip-rule="evenodd" />
        </symbol>
        <symbol id="user" viewBox="0 0 24 24" xmlns="http://www.w3.org/2000/svg">
            <path fill="currentColor" fill-rule="evenodd" d="M7.5 6a4.5 4.5 0 119 0 4.5 4.5 0 01-9 0zM3.751 20.105a8.25 8.25 0 0116.498 0 .75.75 0 01-.437.695A18.683 18.683 0 0112 22.5c-2.786 0-5.433-.608-7.812-1.7a.75.75 0 01-.437-.695z" clip-rule="evenodd" />
        </symbol>
        <symbol id="arrow" viewBox="0 0 24 24" xmlns="http://www.w3.org/2000/svg">
            <g id="Iconly/Bold/Arrow---Right" stroke="none" stroke-width="1" fill="none" fill-rule="evenodd">
                <g id="Arrow---Right" transform="translate(3.000000, 6.000000)" fill="currentColor" fill-rule="nonzero">
                    <path d="M7.83655568,6.36070466 L7.8350323,6.00660914 C7.8350323,4.53497338 7.92121308,3.19331742 8.05102968,2.31870755 L8.16475558,1.77483018 C8.22802754,1.48678171 8.31120835,1.15880301 8.39793457,0.991371397 C8.71538527,0.378924178 9.33610502,0 10.0004606,0 L10.0582781,0 C10.4913637,0.0143198091 11.4011709,0.394345511 11.4011709,0.407563797 C12.8651531,1.02183092 15.6895424,2.87571834 16.9940026,4.19738844 L17.3730714,4.59418673 C17.4723361,4.70172939 17.5838596,4.82900679 17.6530951,4.92821737 C17.884365,5.23444098 18,5.61336516 18,5.99228933 C18,6.41527446 17.8701834,6.80851845 17.6247318,7.13016339 L17.2352725,7.55047018 L17.2352725,7.55047018 L17.1480103,7.6401689 C15.9643883,8.9234441 12.8738803,11.0218469 11.2571726,11.6640352 L11.0130847,11.7575787 C10.719361,11.8628603 10.3078205,11.988434 10.0582781,12 C9.74082738,12 9.43755833,11.9261979 9.14847093,11.7807968 C8.7873844,11.5770149 8.49938789,11.2553699 8.34011709,10.8764457 C8.23866377,10.6142831 8.07939298,9.82669359 8.07939298,9.81237378 C7.93338076,9.01825987 7.84871691,7.76518207 7.83655568,6.36070466 Z M1.77635684e-15,5.99955939 C1.77635684e-15,5.1612998 0.673082751,4.48165963 1.50325451,4.48165963 L5.20248239,4.80881219 C5.85374723,4.80881219 6.38174083,5.3419497 6.38174083,5.99955939 C6.38174083,6.65827061 5.85374723,7.19030659 5.20248239,7.19030659 L1.50325451,7.51745915 C0.673082751,7.51745915 1.77635684e-15,6.83781898 1.77635684e-15,5.99955939 Z"></path>
                </g>
            </g>
        </symbol>
        <symbol id="send" viewBox="0 0 24 24" xmlns="http://www.w3.org/2000/svg">
            <g id="Iconly/Bold/Send" stroke="none" stroke-width="1" fill="none" fill-rule="evenodd">
                <g id="Send" transform="translate(2.000000, 2.000000)" fill="currentColor" fill-rule="nonzero">
                    <path d="M19.4353768,0.581982692 C18.935172,0.0685980979 18.1948689,-0.122662829 17.5045863,0.0786644625 L1.40799658,4.759524 C0.679698425,4.96185793 0.163487095,5.54268717 0.0244301664,6.28055169 C-0.11762799,7.03150249 0.378575149,7.98478722 1.02684054,8.38341526 L6.05990101,11.4768091 C6.57611234,11.7938996 7.2423851,11.7143753 7.66955998,11.2835349 L13.4329194,5.48430225 C13.7230382,5.18231131 14.2032348,5.18231131 14.4933536,5.48430225 C14.7834723,5.77622682 14.7834723,6.24934596 14.4933536,6.5513369 L8.71999001,12.3515762 C8.29181472,12.7814099 8.21178196,13.4508232 8.52691097,13.9702476 L11.6021699,19.0537617 C11.9623174,19.6577436 12.5825713,20 13.2628498,20 C13.3428826,20 13.4329194,20 13.5129522,19.9899336 C14.2932716,19.88927 14.9135256,19.3557527 15.1436198,18.6007753 L19.9155733,2.52479106 C20.1256593,1.84027827 19.9355815,1.09536729 19.4353768,0.581982692"></path>
                </g>
            </g>
        </symbol>
        <symbol xmlns="http://www.w3.org/2000/svg" id="resize" viewBox="0 0 16 16">
            <g clip-path="url(#clip0_742_351)">
                <path d="M15.2727 10.1821C14.871 10.1821 14.5454 10.5077 14.5454 10.9094V13.5171L9.96882 8.94056C9.68485 8.65653 9.22434 8.65653 8.94031 8.94056C8.65629 9.22458 8.65629 9.68504 8.94031 9.96907L13.5168 14.5456L10.909 14.5457C10.5073 14.5457 10.1817 14.8714 10.1818 15.2731C10.1818 15.6747 10.5074 16.0003 10.9091 16.0003L15.2727 16C15.6744 16 15.9999 15.6744 15.9999 15.2727V10.9094C15.9999 10.5077 15.6743 10.1821 15.2727 10.1821Z" fill="currentColor"/>
                <path d="M0.727273 5.81818C1.12892 5.81818 1.45455 5.49256 1.45455 5.09091V2.48315L6.03113 7.05973C6.17314 7.20175 6.35927 7.27278 6.54536 7.27278C6.73149 7.27278 6.91762 7.20179 7.05964 7.05973C7.34366 6.77571 7.34366 6.31525 7.05964 6.03122L2.48315 1.45474L5.09096 1.45455C5.49261 1.45455 5.81823 1.12887 5.81818 0.727224C5.81813 0.325576 5.49251 0 5.09086 0L0.727224 0.000290909C0.325576 0.000290909 0 0.325915 0 0.727564V5.09091C0 5.49256 0.325624 5.81818 0.727273 5.81818Z" fill="currentColor"/>
                <path d="M6.03122 8.94056L1.45474 13.517L1.45455 10.9092C1.45455 10.5076 1.12887 10.182 0.727224 10.182C0.325576 10.182 0 10.5077 0 10.9093L0.000290909 15.273C0.000290909 15.6746 0.325915 16.0002 0.727564 16.0002H5.09091C5.49256 16.0002 5.81818 15.6746 5.81818 15.2729C5.81818 14.8713 5.49256 14.5456 5.09091 14.5456H2.48315L7.05973 9.96907C7.34376 9.68504 7.34376 9.22458 7.05973 8.94056C6.77571 8.65653 6.3152 8.65653 6.03122 8.94056Z" fill="currentColor"/>
                <path d="M9.45459 7.27258C9.64072 7.27258 9.82686 7.2016 9.96882 7.05954L14.5453 2.48305L14.5455 5.09096C14.5455 5.49261 14.8712 5.81823 15.2728 5.81818C15.6745 5.81813 16.0001 5.49251 16 5.09086L15.9998 0.727224C15.9997 0.325576 15.6741 0 15.2725 0H10.9091C10.5075 0 10.1819 0.325624 10.1819 0.727273C10.1819 1.12892 10.5075 1.45455 10.9091 1.45455H13.5168L8.94031 6.03108C8.65629 6.3151 8.65629 6.77556 8.94031 7.05959C9.08233 7.2016 9.26846 7.27258 9.45459 7.27258Z" fill="currentColor"/>
            </g>
            <defs>
                <clipPath id="clip0_742_351">
                    <rect width="16" height="16" fill="white"/>
                </clipPath>
            </defs>
        </symbol>
        <symbol id="games" viewBox="0 0 24 24" xmlns="http://www.w3.org/2000/svg">
            <g id="Iconly/Bold/Game" stroke="none" stroke-width="1" fill="none" fill-rule="evenodd">
                <g id="Game" transform="translate(2.000000, 2.000000)" fill="currentColor" fill-rule="nonzero">
                    <path d="M6.35917566,0 C6.77134446,0 7.09519136,0.327552987 7.09519136,0.722543353 C7.09519136,1.01156069 7.34052993,1.24277457 7.63493621,1.24277457 L7.63493621,1.24277457 L8.60647694,1.24277457 C10.0883219,1.25240848 11.2953876,2.43737958 11.3052012,3.88246628 L11.3052012,3.88246628 L11.3052012,4.0655106 C12.2374877,4.0655106 13.1697743,4.08477842 14.1118744,4.09441233 C17.5171737,4.09441233 20,6.522158 20,9.87475915 L20,9.87475915 L20,14.1811175 C20,17.5337187 17.5171737,19.9614644 14.1118744,19.9614644 C12.747792,19.9903661 11.3837095,20 10.0098135,20 C8.63591757,20 7.25220805,19.9903661 5.88812561,19.9614644 C2.4828263,19.9614644 0,17.5337187 0,14.1811175 L0,14.1811175 L0,9.87475915 C0,6.522158 2.4828263,4.09441233 5.89793916,4.09441233 C7.18351325,4.07514451 8.49852797,4.05587669 9.83316977,4.05587669 L9.83316977,4.05587669 L9.83316977,3.89210019 C9.83316977,3.22736031 9.27379784,2.68786127 8.60647694,2.68786127 L8.60647694,2.68786127 L7.63493621,2.68786127 C6.52600589,2.68786127 5.62315996,1.80154143 5.62315996,0.722543353 C5.62315996,0.327552987 5.95682041,0 6.35917566,0 Z M7.08537782,9.56647399 C6.67320903,9.56647399 6.34936212,9.89402697 6.34936212,10.2890173 L6.34936212,10.2890173 L6.34936212,11.300578 L5.30912659,11.300578 C4.90677134,11.300578 4.57311089,11.628131 4.57311089,12.0231214 C4.57311089,12.4277457 4.90677134,12.7456647 5.30912659,12.7456647 L5.30912659,12.7456647 L6.34936212,12.7456647 L6.34936212,13.7668593 C6.34936212,14.1618497 6.67320903,14.4894027 7.08537782,14.4894027 C7.48773307,14.4894027 7.82139352,14.1618497 7.82139352,13.7668593 L7.82139352,13.7668593 L7.82139352,12.7456647 L8.85181551,12.7456647 C9.25417076,12.7456647 9.58783121,12.4277457 9.58783121,12.0231214 C9.58783121,11.628131 9.25417076,11.300578 8.85181551,11.300578 L8.85181551,11.300578 L7.82139352,11.300578 L7.82139352,10.2890173 C7.82139352,9.89402697 7.48773307,9.56647399 7.08537782,9.56647399 Z M14.7988224,12.9865125 L14.7006869,12.9865125 C14.2875368,12.9865125 13.9646712,13.3140655 13.9646712,13.7090559 C13.9646712,14.1136802 14.2875368,14.4315992 14.7006869,14.4315992 L14.7006869,14.4315992 L14.7988224,14.4315992 C15.2011776,14.4315992 15.5348381,14.1136802 15.5348381,13.7090559 C15.5348381,13.3140655 15.2011776,12.9865125 14.7988224,12.9865125 L14.7988224,12.9865125 Z M13.1207066,9.67244701 L13.0225711,9.67244701 C12.6104024,9.67244701 12.2865554,10 12.2865554,10.3949904 C12.2865554,10.7996146 12.6104024,11.1175337 13.0225711,11.1175337 L13.0225711,11.1175337 L13.1207066,11.1175337 C13.5230618,11.1175337 13.8567223,10.7996146 13.8567223,10.3949904 C13.8567223,10 13.5230618,9.67244701 13.1207066,9.67244701 L13.1207066,9.67244701 Z"></path>
                </g>
            </g>
        </symbol>
        <symbol id="chart" viewBox="0 0 24 24" xmlns="http://www.w3.org/2000/svg">
            <g id="Iconly/Bold/Chart" stroke="none" stroke-width="1" fill="none" fill-rule="evenodd">
                <g id="Chart" transform="translate(2.000000, 2.000000)" fill="currentColor" fill-rule="nonzero">
                    <path d="M14.6694,0.0004 C18.0704,0.0004 19.9904,1.9294 20.0004,5.3304 L20.0004,5.3304 L20.0004,14.6704 C20.0004,18.0704 18.0704,20.0004 14.6694,20.0004 L14.6694,20.0004 L5.3304,20.0004 C1.9294,20.0004 0.0004,18.0704 0.0004,14.6704 L0.0004,14.6704 L0.0004,5.3304 C0.0004,1.9294 1.9294,0.0004 5.3304,0.0004 L5.3304,0.0004 Z M10.5004,4.1304 C10.2194,3.9604 9.8794,3.9604 9.6104,4.1304 C9.3394,4.2994 9.1904,4.6104 9.2194,4.9204 L9.2194,4.9204 L9.2194,15.1104 C9.2704,15.5404 9.6294,15.8604 10.0494,15.8604 C10.4804,15.8604 10.8394,15.5404 10.8794,15.1104 L10.8794,15.1104 L10.8794,4.9204 C10.9194,4.6104 10.7704,4.2994 10.5004,4.1304 Z M5.8304,7.4104 C5.5604,7.2404 5.2194,7.2404 4.9504,7.4104 C4.6794,7.5804 4.5304,7.8894 4.5604,8.2004 L4.5604,8.2004 L4.5604,15.1104 C4.5994,15.5404 4.9594,15.8604 5.3894,15.8604 C5.8204,15.8604 6.1794,15.5404 6.2194,15.1104 L6.2194,15.1104 L6.2194,8.2004 C6.2504,7.8894 6.0994,7.5804 5.8304,7.4104 Z M15.0894,11.0404 C14.8204,10.8704 14.4804,10.8704 14.2004,11.0404 C13.9294,11.2104 13.7804,11.5094 13.8204,11.8304 L13.8204,11.8304 L13.8204,15.1104 C13.8604,15.5404 14.2194,15.8604 14.6504,15.8604 C15.0704,15.8604 15.4294,15.5404 15.4804,15.1104 L15.4804,15.1104 L15.4804,11.8304 C15.5094,11.5094 15.3604,11.2104 15.0894,11.0404 Z"></path>
                </g>
            </g>
        </symbol>
        <symbol id="close" viewBox="0 0 14 14" xmlns="http://www.w3.org/2000/svg">
            <path d="M.308 1.795A1.052 1.052 0 111.795.308l11.897 11.897a1.051 1.051 0 11-1.487 1.487L.308 1.795z" fill="currentColor"></path><path d="M1.795 13.692a1.051 1.051 0 11-1.487-1.487L12.205.308a1.052 1.052 0 111.487 1.487L1.795 13.692z" fill="currentColor"></path>
        </symbol>
        <symbol id="bonus" viewBox="0 0 24 24"  xmlns="http://www.w3.org/2000/svg">
            <path fill="currentColor" d="M9.375 3a1.875 1.875 0 000 3.75h1.875v4.5H3.375A1.875 1.875 0 011.5 9.375v-.75c0-1.036.84-1.875 1.875-1.875h3.193A3.375 3.375 0 0112 2.753a3.375 3.375 0 015.432 3.997h3.943c1.035 0 1.875.84 1.875 1.875v.75c0 1.036-.84 1.875-1.875 1.875H12.75v-4.5h1.875a1.875 1.875 0 10-1.875-1.875V6.75h-1.5V4.875C11.25 3.839 10.41 3 9.375 3zM11.25 12.75H3v6.75a2.25 2.25 0 002.25 2.25h6v-9zM12.75 12.75v9h6.75a2.25 2.25 0 002.25-2.25v-6.75h-9z" />
        </symbol>
        <symbol id="faq" viewBox="0 0 24 24" xmlns="http://www.w3.org/2000/svg">
            <g id="Iconly/Bold/Paper" stroke="none" stroke-width="1" fill="none" fill-rule="evenodd">
                <g id="Paper" transform="translate(3.500000, 2.000000)" fill="currentColor" fill-rule="nonzero">
                    <path d="M9.75247525,0 C10.009901,0 10.2079208,0.21 10.2079208,0.46 L10.2079208,0.46 L10.2079208,3.68 C10.2079208,5.51 11.7029703,7.01 13.5148515,7.02 C14.2673267,7.02 14.8613861,7.03 15.3168317,7.03 L15.4855152,7.02925926 C15.789879,7.02694444 16.19967,7.02 16.5544554,7.02 C16.8019802,7.02 17,7.22 17,7.47 L17,7.47 L17,15.51 C17,17.99 15.009901,20 12.5544554,20 L12.5544554,20 L4.67326733,20 C2.0990099,20 8.8817842e-15,17.89 8.8817842e-15,15.29 L8.8817842e-15,15.29 L8.8817842e-15,4.51 C8.8817842e-15,2.03 2,0 4.46534653,0 L4.46534653,0 Z M10.8118812,12.9 L5.42574257,12.9 C5.01980198,12.9 4.68316832,13.23 4.68316832,13.64 C4.68316832,14.05 5.01980198,14.39 5.42574257,14.39 L5.42574257,14.39 L10.8118812,14.39 C11.2178218,14.39 11.5544554,14.05 11.5544554,13.64 C11.5544554,13.23 11.2178218,12.9 10.8118812,12.9 L10.8118812,12.9 Z M8.77227723,7.9 L5.42574257,7.9 C5.01980198,7.9 4.68316832,8.24 4.68316832,8.65 C4.68316832,9.06 5.01980198,9.39 5.42574257,9.39 L5.42574257,9.39 L8.77227723,9.39 C9.17821782,9.39 9.51485149,9.06 9.51485149,8.65 C9.51485149,8.24 9.17821782,7.9 8.77227723,7.9 L8.77227723,7.9 Z M11.6506931,0.906 C11.6506931,0.475 12.1685149,0.261 12.4645545,0.572 C13.5348515,1.696 15.4051485,3.661 16.4506931,4.759 C16.739802,5.062 16.5279208,5.565 16.1110891,5.566 C15.2972277,5.569 14.3378218,5.566 13.6477228,5.559 C12.5526733,5.559 11.6506931,4.648 11.6506931,3.542 L11.6506931,3.542 Z"></path>
                </g>
            </g>
        </symbol>
        <symbol id="contacts" viewBox="0 0 24 24" xmlns="http://www.w3.org/2000/svg">
            <path fill="currentColor" fill-rule="evenodd" d="M4.804 21.644A6.707 6.707 0 006 21.75a6.721 6.721 0 003.583-1.029c.774.182 1.584.279 2.417.279 5.322 0 9.75-3.97 9.75-9 0-5.03-4.428-9-9.75-9s-9.75 3.97-9.75 9c0 2.409 1.025 4.587 2.674 6.192.232.226.277.428.254.543a3.73 3.73 0 01-.814 1.686.75.75 0 00.44 1.223zM8.25 10.875a1.125 1.125 0 100 2.25 1.125 1.125 0 000-2.25zM10.875 12a1.125 1.125 0 112.25 0 1.125 1.125 0 01-2.25 0zm4.875-1.125a1.125 1.125 0 100 2.25 1.125 1.125 0 000-2.25z" clip-rule="evenodd" />
        </symbol>
        <symbol id="home" viewBox="0 0 32 32" xmlns="http://www.w3.org/2000/svg">
            <path fill="currentColor" d="M30.854,16.548C30.523,17.43,29.703,18,28.764,18H28v11c0,0.552-0.448,1-1,1h-6v-7c0-2.757-2.243-5-5-5  s-5,2.243-5,5v7H5c-0.552,0-1-0.448-1-1V18H3.235c-0.939,0-1.759-0.569-2.09-1.451c-0.331-0.882-0.088-1.852,0.62-2.47L13.444,3.019  c1.434-1.357,3.679-1.357,5.112,0l11.707,11.086C30.941,14.696,31.185,15.666,30.854,16.548z" id="XMLID_219_"/>
        </symbol>
        <symbol id="play" viewBox="0 0 24 24" xmlns="http://www.w3.org/2000/svg">
             <path fill="currentColor" fill-rule="evenodd" d="M4.5 5.653c0-1.426 1.529-2.33 2.779-1.643l11.54 6.348c1.295.712 1.295 2.573 0 3.285L7.28 19.991c-1.25.687-2.779-.217-2.779-1.643V5.653z" clip-rule="evenodd" />
        </symbol>
        <symbol id="users" viewBox="0 0 375 375" xmlns="http://www.w3.org/2000/svg">
            <path fill-rule="evenodd" clip-rule="evenodd" d="M175.54 20.2428C145.458 26.7917 126.03 56.9021 132.422 87.0697C137.599 111.509 159.211 129.965 184.297 131.372C215.229 133.107 241.802 109.37 243.536 78.4587C244.118 68.0753 242.343 59.6914 237.472 49.824C226.378 27.3473 200.245 14.8649 175.54 20.2428ZM58.2812 38.3541C51.3484 39.2777 39.5738 44.7745 34.1237 49.632C14.218 67.3709 13.43 98.662 32.4121 117.643C57.8049 143.036 100.2 131.895 110.564 97.1053C112.442 90.8046 112.399 78.8382 110.476 72.2144C103.817 49.286 82.0786 35.1835 58.2812 38.3541ZM302.758 38.3611C279.586 41.8143 262.843 61.418 262.941 84.9812C263.007 100.7 270.537 114.977 283.196 123.379C302.212 136.002 326.498 133.653 342.507 117.643C358.517 101.634 360.866 77.3484 348.243 58.332C338.637 43.8588 320.197 35.7629 302.758 38.3611ZM26.3729 151.098C16.5601 153.021 7.32567 160.163 2.84055 169.296L0.359384 174.349L0.0705897 212.65C-0.131919 239.656 0.0943624 252.767 0.839241 257.113C6.03931 287.429 30.284 312.138 60.529 317.946C68.404 319.458 80.956 319.549 88.5588 318.148C93.1514 317.302 94.0829 316.853 93.5855 315.726C93.25 314.967 91.637 310.606 90.0019 306.036C84.4937 290.643 84.352 288.546 84.6478 227.046L84.9137 171.708L86.9529 166.228C88.0746 163.215 90.5355 158.361 92.4224 155.443L95.8518 150.136L63.0736 150.233C45.0459 150.286 28.5301 150.675 26.3729 151.098ZM129.921 151.039C119.703 152.804 109.383 161.232 105.418 171.05L103.375 176.11L103.388 230.699L103.402 285.288L105.716 293.705C108.28 303.026 114.251 315.652 119.252 322.325C141.741 352.33 179.806 364.239 214.985 352.275C227.374 348.061 236.497 342.31 246.527 332.394C256.253 322.777 262.548 313.222 266.676 301.812C271.855 287.499 272.078 284.248 271.798 227.015L271.545 175.189L268.662 169.336C265.091 162.083 258.132 155.471 251.071 152.62L246.011 150.576L190.101 150.439C159.351 150.363 132.269 150.633 129.921 151.039ZM279.909 150.608C279.909 150.929 281.291 153.43 282.98 156.166C284.669 158.903 286.948 163.519 288.043 166.425C290.025 171.682 290.035 171.977 290.279 227.797C290.515 281.686 290.453 284.239 288.691 292.883C287.683 297.833 285.666 304.972 284.208 308.751C282.751 312.53 281.497 315.929 281.423 316.304C280.913 318.879 303.648 320.005 314.448 317.939C344.257 312.236 367.984 288.486 373.753 258.577C374.708 253.632 375 243.345 375 214.751C375 179.82 374.887 177.065 373.264 172.446C370.129 163.528 363.037 156.315 353.625 152.475C349.249 150.688 347.355 150.583 314.468 150.311C295.461 150.154 279.909 150.288 279.909 150.608Z" fill="currentColor"/>
        </symbol>
        <symbol id="fair" viewBox="0 0 24 24" xmlns="http://www.w3.org/2000/svg">
            <g id="Iconly/Bold/Shield-Done" stroke="none" stroke-width="1" fill="none" fill-rule="evenodd">
                <g id="Shield-Done" transform="translate(3.500000, 2.000000)" fill="currentColor" fill-rule="nonzero">
                    <path d="M9.07075879,0.0995641968 L15.708183,2.32651721 C16.4511557,2.57461017 16.953518,3.25711096 16.9575449,4.02198254 L16.9998279,10.6626368 C17.0129155,12.675818 16.2790035,14.6282017 14.9350081,16.1579449 C14.3168709,16.8600578 13.5245681,17.4631296 12.5127963,18.0024621 L8.94491652,19.909738 C8.8331686,19.9685743 8.71034655,19.998973 8.58651777,19.9999774 C8.46268898,20.0009343 8.3388602,19.9715161 8.22811901,19.9136604 L4.62701688,18.0505117 C3.60417099,17.5200047 2.80482095,16.9257583 2.18064334,16.2334514 C0.814499758,14.719398 0.055419243,12.7758397 0.0423316479,10.7597166 L2.41764636e-05,4.12396542 C-0.00397830397,3.35811323 0.489323357,2.67070942 1.22826911,2.41281041 L7.84052485,0.106428429 C8.2331527,-0.0328174223 8.67108377,-0.035759236 9.07075879,0.0995641968 Z M12.2448026,7.21865543 C11.9478149,6.93329949 11.4696143,6.9352607 11.1766535,7.22453905 L11.1766535,7.22453905 L7.80810788,10.5448662 L6.42887671,9.21908878 C6.13188897,8.93373285 5.65469512,8.93667466 5.3607276,9.22595301 C5.06776682,9.51523137 5.07078703,9.98003794 5.36777476,10.2653939 L5.36777476,10.2653939 L7.28359734,12.1089305 C7.43259457,12.2520988 7.62588829,12.3227023 7.819182,12.3207808 C8.01247571,12.3197605 8.20476269,12.2471957 8.35174645,12.1020663 L8.35174645,12.1020663 L12.250843,8.25809629 C12.5438038,7.96881793 12.5407836,7.50401136 12.2448026,7.21865543 Z"></path>
                </g>
            </g>
        </symbol>
        <symbol id="tourniers" viewBox="0 0 937.4 937.4" xmlns="http://www.w3.org/2000/svg">
            <g>
                <path fill="currentColor" d="M887.4,418.7h-31.8c-4.5-35-13.7-69.1-27.5-101.8c-19.601-46.4-47.801-88.2-83.601-124c-35.8-35.8-77.5-63.9-124-83.6
                    c-32.7-13.8-66.8-23-101.8-27.5V50c0-27.6-22.4-50-50-50s-50,22.4-50,50v31.8c-35,4.5-69.1,13.7-101.8,27.5
                    c-46.4,19.6-88.2,47.8-124,83.6c-35.8,35.8-63.9,77.5-83.6,124c-13.8,32.7-23,66.8-27.5,101.8H50c-27.6,0-50,22.4-50,50
                    c0,27.601,22.4,50,50,50h31.8c4.5,35,13.7,69.102,27.5,101.801c19.6,46.4,47.8,88.199,83.6,124c35.8,35.801,77.5,63.9,124,83.6
                    c32.7,13.801,66.8,23,101.8,27.5V887.4c0,27.6,22.4,50,50,50s50-22.4,50-50V855.6c35-4.5,69.1-13.699,101.8-27.5
                    c46.4-19.6,88.2-47.799,124-83.6s63.9-77.5,83.601-124c13.8-32.699,23-66.801,27.5-101.801h31.8c27.6,0,50-22.398,50-50
                    C937.4,441.1,915,418.7,887.4,418.7z M730,518.699h24.4C744.3,577.1,716.5,631,673.7,673.801c-42.8,42.799-96.6,70.6-155.1,80.699
                    v-24.4c0-27.6-22.4-50-50-50c-27.601,0-50,22.4-50,50v24.4C360.2,744.4,306.3,716.6,263.5,673.801
                    c-42.8-42.801-70.6-96.602-80.7-155.102h24.4c27.6,0,50-22.398,50-50c0-27.6-22.4-50-50-50h-24.4
                    c10.1-58.399,37.9-112.3,80.7-155.1s96.601-70.6,155.101-80.7v24.4c0,27.6,22.399,50,50,50c27.6,0,50-22.4,50-50v-24.4
                    C577,193,630.9,220.8,673.7,263.6s70.6,96.6,80.7,155.1H730c-27.6,0-50,22.4-50,50C680,496.301,702.4,518.699,730,518.699z"/>
            </g>
        </symbol>
        <symbol id="place" viewBox="0 0 316 317" xmlns="http://www.w3.org/2000/svg">
            <path fill-rule="evenodd" clip-rule="evenodd" d="M140.001 11.6842L122.501 23.2132L103.501 22.4762C93.0508 22.0712 83.2508 21.6862 81.7228 21.6202C79.0978 21.5072 78.4078 22.5442 69.1798 40.5002L59.4138 59.5002L40.0778 69.3562L20.7428 79.2132L21.3618 88.3562C21.7018 93.3852 22.2678 103.125 22.6198 110L23.2588 122.5L12.0388 139.406C5.86777 148.704 0.597766 156.888 0.326766 157.592C0.0567662 158.296 5.09777 166.889 11.5278 176.686L23.2208 194.5L22.6008 207C22.2598 213.875 21.7008 223.624 21.3598 228.664L20.7398 237.827L40.1198 247.664L59.5008 257.5L69.1678 276.506L78.8358 295.512L99.6678 294.406C111.126 293.798 121.408 293.632 122.516 294.036C123.624 294.441 132.052 299.761 141.245 305.86L157.96 316.949L175.731 305.288L193.501 293.627L202.501 293.874C207.451 294.01 217.258 294.431 224.294 294.81L237.087 295.5L246.863 276.5L256.639 257.5L275.957 247.661L295.274 237.821L294.638 226.911C294.288 220.91 293.72 211.162 293.376 205.25L292.75 194.5L304.032 177.5C310.237 168.15 315.471 159.825 315.662 159C315.853 158.175 310.8 149.625 304.432 140L292.854 122.5L293.427 111.75C293.743 105.838 294.287 96.0932 294.637 90.0962L295.274 79.1912L276.208 69.5792L257.143 59.9662L247.232 40.7332C237.709 22.2522 237.208 21.5052 234.411 21.6202C232.811 21.6862 222.951 22.0822 212.501 22.4992L193.501 23.2582L176.595 12.0382C167.297 5.86723 159.197 0.668225 158.595 0.486225C157.993 0.304225 149.626 5.34223 140.001 11.6842ZM170.501 42.0352C197.554 45.0982 221.633 56.6972 241.013 76.0002C253.99 88.9262 262.931 103.226 268.835 120.5C282.306 159.912 273.741 203.543 246.317 235.217C221.615 263.747 184.856 278.486 147.26 274.935C124.895 272.822 106.32 265.772 88.6818 252.7C59.8608 231.342 42.9498 199.645 41.3058 163.903C40.5208 146.847 42.4648 133.726 48.0698 118.253C66.3018 67.9212 117.518 36.0372 170.501 42.0352ZM139.699 60.5902C109.505 66.0472 82.9138 86.3242 69.0008 114.5C60.5348 131.646 57.4648 148.409 59.2018 168C64.3508 226.084 120.097 267.596 177.296 255.94C227.822 245.643 262.121 199.465 256.925 148.731C250.971 90.5842 197.245 50.1892 139.699 60.5902ZM161.49 91.4312C164.596 92.7292 165.75 94.5852 173.886 111.372C182.517 129.179 182.984 129.904 186.179 130.457C188.006 130.773 197.091 132.161 206.368 133.543C215.644 134.924 224.072 136.503 225.095 137.05C227.641 138.413 229 141.236 229.008 145.184C229.015 148.156 227.441 150.012 213.844 163.072L198.672 177.645L201.836 196.159C205.571 218.009 205.647 219.909 202.928 223.365C199.277 228.007 195.571 227.12 176.329 217C166.918 212.05 158.674 208 158.01 208C157.347 208 149.144 212.05 139.783 217C120.978 226.943 117.675 227.765 113.456 223.545C110.311 220.401 110.34 219.363 114.204 196.587L117.412 177.674L102.78 163.553C93.6848 154.775 87.8898 148.404 87.4658 146.716C86.5138 142.925 87.6308 139.288 90.2798 137.553C91.5158 136.743 100.397 134.926 110.014 133.516C119.632 132.106 128.756 130.699 130.29 130.388C132.764 129.888 134.145 127.695 142.496 111.01C151.832 92.3592 152.395 91.5872 157.783 90.0792C157.938 90.0362 159.606 90.6442 161.49 91.4312ZM151.468 132.125C148.186 138.793 144.601 144.829 143.501 145.538C142.401 146.246 135.523 147.63 128.216 148.611L114.932 150.397L124.866 160.448C130.33 165.977 135.055 171.4 135.368 172.5C135.68 173.6 134.885 180.463 133.601 187.75C132.316 195.037 131.503 201 131.793 201C132.082 201 137.46 198.3 143.743 195C150.142 191.639 156.453 189 158.091 189C159.746 189 166.025 191.654 172.559 195.116C178.908 198.479 184.247 201.067 184.424 200.866C184.6 200.665 183.719 194.65 182.466 187.5C180.526 176.433 180.378 174.054 181.47 171.5C182.175 169.85 186.867 164.497 191.897 159.604C196.927 154.711 200.92 150.619 200.772 150.512C200.623 150.404 194.964 149.549 188.196 148.612C181.428 147.675 174.795 146.492 173.455 145.983C171.66 145.3 169.377 141.761 164.778 132.528C161.346 125.638 158.29 120 157.986 120C157.683 120 154.749 125.456 151.468 132.125Z" fill="currentColor"/>
        </symbol>
        <symbol id="" xmlns="http://www.w3.org/2000/svg">
            
        </symbol>
        <symbol id="" xmlns="http://www.w3.org/2000/svg">
            
        </symbol>
    </defs>
</svg>