<svg width="100" height="100" viewBox="0 0 100 100" fill="none" xmlns="http://www.w3.org/2000/svg">
<g clip-path="url(#clip0_11_2)">
<path fill-rule="evenodd" clip-rule="evenodd" d="M41.3876 71.0542C41.3876 70.5675 41.2549 69.0027 42.6151 69.0027C44.9542 69.0027 43.2731 71.9776 45.7228 74.5102C48.5042 77.3912 51.3686 75.2844 51.3686 77.7506C51.3686 80.5708 44.5837 78.8732 42.2944 74.3831C41.8631 73.537 41.3876 72.2596 41.3876 71.0542ZM80.3496 15H80.9523C81.367 15.0166 81.5716 15.1161 81.9145 15.6193C83.1255 17.4109 85 21.0937 85 23.2005V25.9432C84.9447 26.5791 84.8064 27.2095 84.4692 28.144C84.1982 28.896 83.7448 29.1172 84.0876 29.9799C84.6129 31.3015 85 32.4848 85 34.2764V34.4091C85 37.1187 84.9779 38.1582 83.3355 40.6798C81.7043 43.1791 80.897 42.2944 80.897 44.3957C80.897 46.2481 80.2113 48.084 79.4869 49.2729C78.193 51.4018 76.4733 52.1041 76.2079 52.5575L75.8816 53.4588C75.2899 55.0071 73.7748 56.8319 72.514 57.888C71.021 59.1378 68.776 60.7138 67.0452 61.5764C65.9835 62.1072 63.9099 63.285 62.8482 63.5339C63.755 65.2425 64.6287 67.3659 64.6287 69.9593C64.6287 78.7957 58.2419 84.4304 51.1806 85H48.825C47.0002 84.8507 45.1699 84.3586 43.4391 83.496C40.4696 82.0139 38.0642 79.5146 36.6431 76.4788C34.6967 72.2929 35.0285 67.5429 37.1463 63.5339C36.1012 63.2906 33.9114 62.063 32.8608 61.5321C29.8582 60.0059 25.0806 56.5664 24.041 53.2597C23.9968 53.116 23.8972 52.7786 23.8364 52.6459C23.4603 51.8884 22.0061 51.7391 20.408 49.1014C18.362 45.7338 19.7334 43.981 18.7381 42.9801C16.9796 41.2272 15 39.0098 15 36.0514V34.2045C15.0166 32.6452 15.1493 32.1088 15.9511 29.8803C16.2221 29.1283 15.7465 28.7689 15.4921 28.0445C15.1825 27.1487 15.0498 26.557 15 25.9653V23.2005C15 21.6632 15.9069 19.6117 16.4598 18.5113C16.8856 17.6598 17.9362 15 19.103 15C22.6475 15 19.2855 17.8975 22.1056 23.3443C24.0244 27.0436 30.0241 28.9403 33.3197 31.1301C35.9519 32.8774 38.3794 35.3491 38.3794 39.3361C38.3794 47.0554 35.5095 45.0703 35.5095 53.4146C35.5095 57.96 38.2135 59.7405 38.9269 60.7967C39.5904 60.3543 40.1655 59.3977 42.2889 58.0097C42.6594 57.7664 43.0962 57.4789 43.4833 57.2908C46.6131 55.726 50.1631 55.361 53.6081 56.2292L56.5167 57.2908C57.7996 57.9323 60.1884 59.6797 60.9349 60.7967C62.7376 59.5912 64.4905 56.4725 64.4905 53.4146C64.4905 45.6288 61.6206 45.9938 61.6206 40.4309C61.6206 35.6644 63.2463 33.3309 66.8406 31.0195C70.822 28.4648 71.4025 29.1504 76.1913 25.4732C77.6787 24.3286 79.0999 21.3259 79.122 19.1085C79.1441 17.4718 78.6796 15 80.3496 15Z" fill="url(#paint0_linear_11_2)"/>
</g>
<defs>
<linearGradient id="paint0_linear_11_2" x1="85.7368" y1="15" x2="25.3158" y2="66.2105" gradientUnits="userSpaceOnUse">
<stop offset="0.448139" stop-color="#B5BBD3"/>
<stop offset="1" stop-color="white"/>
</linearGradient>
<clipPath id="clip0_11_2">
<rect width="70" height="70" fill="white" transform="translate(15 15)"/>
</clipPath>
</defs>
</svg>
