<svg data-v-70fac1ae="" width="52" height="16" viewBox="0 0 52 16" fill="none" xmlns="http://www.w3.org/2000/svg" data-v-430e14d0=""><path fill-rule="evenodd" clip-rule="evenodd" d="M4.809.003C5.273 0 6.654-.141 7.239 2.086c.394 1.5 1.021 3.956 1.882 7.37h.351c.924-3.6 1.558-6.056 1.903-7.37.591-2.25 2.068-2.083 2.66-2.083h4.558V16h-4.646V6.573h-.312L11.045 16H7.549l-2.59-9.434h-.312V16H0V.003h4.809zm20.457 0v9.434h.37l3.152-7.758C29.399.136 30.703.003 30.703.003H35.2V16h-4.744V6.566h-.37l-3.09 7.757C26.384 15.86 25.019 16 25.019 16h-4.497V.003h4.744zm26.33 7.602c-.661 2.115-2.74 3.63-5.04 3.63H41.58V16H37.07V7.605h14.526z" fill="#0F754E"></path><path fill-rule="evenodd" clip-rule="evenodd" d="M46.772 0h-9.94c.237 3.562 2.956 6.61 5.77 6.61h9.306C52.445 3.65 50.597 0 46.772 0z" fill="url(#mir_svg__paint0_linear_3241_820)"></path><defs><linearGradient id="mir_svg__paint0_linear_3241_820" x1="51.999" y1="4.158" x2="36.832" y2="4.158" gradientUnits="userSpaceOnUse"><stop stop-color="#1F5CD7"></stop><stop offset="1" stop-color="#02AEFF"></stop></linearGradient></defs></svg>